REM DIRINDEX 1\2,1\3,1\4,1\5\6,1\5\7,1\8
REM DIRNAME cjc115,folder01,folder02,folder03,folder04,folder05,folder06,folder07
TITLE ""
FILE "044 【044】Unit3 (0493 revolt_0504 productivity).mp3" MP3
  TRACK 01 AUDIO
    TITLE "0:"
    INDEX 01 00:00:00
  TRACK 02 AUDIO
    TITLE "2:cjc115_1708"
    INDEX 01 00:00:07
  TRACK 03 AUDIO
    TITLE "0:"
    INDEX 01 00:01:22
  TRACK 04 AUDIO
    TITLE "3:cjc115_1709"
    INDEX 01 00:01:30
  TRACK 05 AUDIO
    TITLE "0:"
    INDEX 01 00:02:38
  TRACK 06 AUDIO
    TITLE "4:cjc115_1710"
    INDEX 01 00:02:51
  TRACK 07 AUDIO
    TITLE "0:"
    INDEX 01 00:06:31
  TRACK 08 AUDIO
    TITLE "2:cjc115_1711"
    INDEX 01 00:07:41
  TRACK 09 AUDIO
    TITLE "0:"
    INDEX 01 00:08:60
  TRACK 10 AUDIO
    TITLE "3:cjc115_1712"
    INDEX 01 00:08:64
  TRACK 11 AUDIO
    TITLE "0:"
    INDEX 01 00:10:10
  TRACK 12 AUDIO
    TITLE "4:cjc115_1713"
    INDEX 01 00:10:18
  TRACK 13 AUDIO
    TITLE "0:"
    INDEX 01 00:15:01
  TRACK 14 AUDIO
    TITLE "2:cjc115_1714"
    INDEX 01 00:16:10
  TRACK 15 AUDIO
    TITLE "0:"
    INDEX 01 00:17:43
  TRACK 16 AUDIO
    TITLE "3:cjc115_1715"
    INDEX 01 00:17:53
  TRACK 17 AUDIO
    TITLE "0:"
    INDEX 01 00:20:18
  TRACK 18 AUDIO
    TITLE "4:cjc115_1716"
    INDEX 01 00:20:26
  TRACK 19 AUDIO
    TITLE "0:"
    INDEX 01 00:25:37
  TRACK 20 AUDIO
    TITLE "2:cjc115_1717"
    INDEX 01 00:26:46
  TRACK 21 AUDIO
    TITLE "0:"
    INDEX 01 00:27:63
  TRACK 22 AUDIO
    TITLE "3:cjc115_1718"
    INDEX 01 00:27:71
  TRACK 23 AUDIO
    TITLE "0:"
    INDEX 01 00:29:25
  TRACK 24 AUDIO
    TITLE "4:cjc115_1719"
    INDEX 01 00:29:33
  TRACK 25 AUDIO
    TITLE "0:"
    INDEX 01 00:32:29
  TRACK 26 AUDIO
    TITLE "2:cjc115_1720"
    INDEX 01 00:33:36
  TRACK 27 AUDIO
    TITLE "0:"
    INDEX 01 00:34:47
  TRACK 28 AUDIO
    TITLE "3:cjc115_1721"
    INDEX 01 00:34:53
  TRACK 29 AUDIO
    TITLE "0:"
    INDEX 01 00:37:08
  TRACK 30 AUDIO
    TITLE "4:cjc115_1722"
    INDEX 01 00:37:16
  TRACK 31 AUDIO
    TITLE "0:"
    INDEX 01 00:41:42
  TRACK 32 AUDIO
    TITLE "2:cjc115_1723"
    INDEX 01 00:42:51
  TRACK 33 AUDIO
    TITLE "0:"
    INDEX 01 00:44:07
  TRACK 34 AUDIO
    TITLE "3:cjc115_1724"
    INDEX 01 00:44:16
  TRACK 35 AUDIO
    TITLE "0:"
    INDEX 01 00:46:06
  TRACK 36 AUDIO
    TITLE "4:cjc115_1725"
    INDEX 01 00:46:13
  TRACK 37 AUDIO
    TITLE "0:"
    INDEX 01 00:50:29
  TRACK 38 AUDIO
    TITLE "2:cjc115_1726"
    INDEX 01 00:51:36
  TRACK 39 AUDIO
    TITLE "0:"
    INDEX 01 00:52:53
  TRACK 40 AUDIO
    TITLE "3:cjc115_1727"
    INDEX 01 00:52:61
  TRACK 41 AUDIO
    TITLE "0:"
    INDEX 01 00:55:34
  TRACK 42 AUDIO
    TITLE "4:cjc115_1728"
    INDEX 01 00:55:44
  TRACK 43 AUDIO
    TITLE "0:"
    INDEX 01 00:58:66
  TRACK 44 AUDIO
    TITLE "2:cjc115_1729"
    INDEX 01 00:59:73
  TRACK 45 AUDIO
    TITLE "0:"
    INDEX 01 01:01:21
  TRACK 46 AUDIO
    TITLE "3:cjc115_1730"
    INDEX 01 01:01:29
  TRACK 47 AUDIO
    TITLE "0:"
    INDEX 01 01:03:16
  TRACK 48 AUDIO
    TITLE "4:cjc115_1731"
    INDEX 01 01:03:26
  TRACK 49 AUDIO
    TITLE "0:"
    INDEX 01 01:06:71
  TRACK 50 AUDIO
    TITLE "2:cjc115_1732"
    INDEX 01 01:08:07
  TRACK 51 AUDIO
    TITLE "0:"
    INDEX 01 01:09:12
  TRACK 52 AUDIO
    TITLE "3:cjc115_1733"
    INDEX 01 01:09:20
  TRACK 53 AUDIO
    TITLE "0:"
    INDEX 01 01:11:25
  TRACK 54 AUDIO
    TITLE "4:cjc115_1734"
    INDEX 01 01:11:35
  TRACK 55 AUDIO
    TITLE "0:"
    INDEX 01 01:16:05
  TRACK 56 AUDIO
    TITLE "2:cjc115_1735"
    INDEX 01 01:17:14
  TRACK 57 AUDIO
    TITLE "0:"
    INDEX 01 01:18:39
  TRACK 58 AUDIO
    TITLE "3:cjc115_1736"
    INDEX 01 01:18:45
  TRACK 59 AUDIO
    TITLE "0:"
    INDEX 01 01:21:25
  TRACK 60 AUDIO
    TITLE "4:cjc115_1737"
    INDEX 01 01:21:33
  TRACK 61 AUDIO
    TITLE "0:"
    INDEX 01 01:25:60
  TRACK 62 AUDIO
    TITLE "2:cjc115_1738"
    INDEX 01 01:26:72
  TRACK 63 AUDIO
    TITLE "0:"
    INDEX 01 01:28:04
  TRACK 64 AUDIO
    TITLE "3:cjc115_1739"
    INDEX 01 01:28:12
  TRACK 65 AUDIO
    TITLE "0:"
    INDEX 01 01:29:13
  TRACK 66 AUDIO
    TITLE "4:cjc115_1740"
    INDEX 01 01:29:21
  TRACK 67 AUDIO
    TITLE "0:"
    INDEX 01 01:33:03
  TRACK 68 AUDIO
    TITLE "2:cjc115_1741"
    INDEX 01 01:34:14
  TRACK 69 AUDIO
    TITLE "0:"
    INDEX 01 01:35:55
  TRACK 70 AUDIO
    TITLE "3:cjc115_1742"
    INDEX 01 01:35:59
  TRACK 71 AUDIO
    TITLE "0:"
    INDEX 01 01:37:21
  TRACK 72 AUDIO
    TITLE "4:cjc115_1743"
    INDEX 01 01:37:28
  TRACK 73 AUDIO
    TITLE "0:"
    INDEX 01 01:41:22
